<svg width="8" height="11" viewBox="0 0 8 11" fill="none" xmlns="http://www.w3.org/2000/svg">
<rect y="5" width="1" height="1" fill="#0B090A"/>
<rect y="6" width="1" height="1" fill="#0B090A"/>
<rect y="7" width="1" height="1" fill="#0B090A"/>
<rect y="8" width="1" height="1" fill="#0B090A"/>
<rect y="9" width="1" height="1" fill="#0B090A"/>
<rect y="10" width="1" height="1" fill="#0B090A"/>
<rect x="1" y="10" width="1" height="1" fill="#0B090A"/>
<rect x="1" y="9" width="1" height="1" fill="#0B090A"/>
<rect x="1" y="8" width="1" height="1" fill="#0B090A"/>
<rect x="1" y="7" width="1" height="1" fill="#0B090A"/>
<rect x="1" y="6" width="1" height="1" fill="#0B090A"/>
<rect x="2" y="10" width="1" height="1" fill="#0B090A"/>
<rect x="2" y="9" width="1" height="1" fill="#0B090A"/>
<rect x="2" y="8" width="1" height="1" fill="#0B090A"/>
<rect x="2" y="7" width="1" height="1" fill="#0B090A"/>
<rect x="3" y="10" width="1" height="1" fill="#0B090A"/>
<rect x="3" y="9" width="1" height="1" fill="#0B090A"/>
<rect x="3" y="8" width="1" height="1" fill="#0B090A"/>
<rect x="4" y="10" width="1" height="1" fill="#0B090A"/>
<rect x="4" y="9" width="1" height="1" fill="#0B090A"/>
<rect x="4" y="8" width="1" height="1" fill="#0B090A"/>
<rect x="5" y="10" width="1" height="1" fill="#0B090A"/>
<rect x="5" y="9" width="1" height="1" fill="#0B090A"/>
<rect x="5" y="8" width="1" height="1" fill="#0B090A"/>
<rect x="5" y="7" width="1" height="1" fill="#0B090A"/>
<rect x="6" y="10" width="1" height="1" fill="#0B090A"/>
<rect x="6" y="9" width="1" height="1" fill="#0B090A"/>
<rect x="6" y="8" width="1" height="1" fill="#0B090A"/>
<rect x="6" y="6" width="1" height="1" fill="#0B090A"/>
<rect x="6" y="7" width="1" height="1" fill="#0B090A"/>
<rect x="7" y="10" width="1" height="1" fill="#0B090A"/>
<rect x="7" y="9" width="1" height="1" fill="#0B090A"/>
<rect x="7" y="8" width="1" height="1" fill="#0B090A"/>
<rect x="7" y="6" width="1" height="1" fill="#0B090A"/>
<rect x="7" y="5" width="1" height="1" fill="#0B090A"/>
<rect x="7" y="7" width="1" height="1" fill="#0B090A"/>
<rect x="2" y="2" width="1" height="1" fill="#0B090A"/>
<rect x="2" y="3" width="1" height="1" fill="#D9D9D9"/>
<rect x="2" y="3" width="1" height="1" fill="#0B090A"/>
<rect x="3" y="2" width="1" height="1" fill="#0B090A"/>
<rect x="3" y="3" width="1" height="1" fill="#D9D9D9"/>
<rect x="3" y="3" width="1" height="1" fill="#0B090A"/>
<rect x="3" y="4" width="1" height="1" fill="#0B090A"/>
<rect x="4" y="3" width="1" height="1" fill="#0B090A"/>
<rect x="4" y="4" width="1" height="1" fill="#0B090A"/>
<rect x="4" y="2" width="1" height="1" fill="#0B090A"/>
<rect x="5" y="2" width="1" height="1" fill="#0B090A"/>
<rect x="5" y="3" width="1" height="1" fill="#D9D9D9"/>
<rect x="5" y="3" width="1" height="1" fill="#0B090A"/>
<path d="M5 4H6L6.5 3L6 2L4 1.5L2 2L1.5 3L2 4H3V5L4 5.5L5 5V4Z" stroke="#0B090A"/>
</svg>
